<svg xmlns="http://www.w3.org/2000/svg" viewBox="0 0 1170 1145">
  <defs>
    <style>
      .cls-1, .cls-10, .cls-2, .cls-4, .cls-6, .cls-7 {
        fill: none;
      }

      .cls-1, .cls-11, .cls-2, .cls-4, .cls-5, .cls-6, .cls-7, .cls-9 {
        stroke: #9fd356;
      }

      .cls-1, .cls-10, .cls-11, .cls-2, .cls-5, .cls-6, .cls-7, .cls-8, .cls-9 {
        stroke-miterlimit: 10;
      }

      .cls-1 {
        stroke-width: 2px;
      }

      .cls-2 {
        stroke-width: 3px;
      }

      .cls-3 {
        fill: #4a8cca;
      }

      .cls-4 {
        stroke-linejoin: round;
      }

      .cls-10, .cls-4, .cls-6, .cls-7, .cls-9 {
        stroke-width: 8px;
      }

      .cls-5, .cls-9 {
        fill: #9fd356;
      }

      .cls-6 {
        stroke-linecap: round;
      }

      .cls-8 {
        fill: #355e3b;
      }

      .cls-10, .cls-8 {
        stroke: #355e3b;
      }

      .cls-11 {
        stroke-width: 6px;
      }
    </style>
  </defs>
  <title>bike</title>
  <g id="bike">
    <line class="cls-1" x1="460.95" y1="524.65" x2="456.53" y2="634.2"/>
    <line class="cls-1" x1="420.63" y1="539.24" x2="496.31" y2="618.44"/>
    <line class="cls-1" x1="503.08" y1="547.51" x2="413.3" y2="609.57"/>
    <line class="cls-1" x1="403.94" y1="574.59" x2="513.01" y2="582.51"/>
    <line class="cls-2" x1="674.84" y1="535.35" x2="642.26" y2="641.32"/>
    <line class="cls-2" x1="636.59" y1="537.13" x2="680.51" y2="639.53"/>
    <line class="cls-2" x1="613.38" y1="555.11" x2="703.14" y2="620.95"/>
    <line class="cls-2" x1="703.59" y1="556.2" x2="612.36" y2="619.26"/>
    <line class="cls-2" x1="602.86" y1="583.71" x2="713.69" y2="591.76"/>
    <path class="cls-3" d="M460.58,514.27a64.9,64.9,0,1,0,62.91,66.84A64.92,64.92,0,0,0,460.58,514.27ZM457,633.9a54.78,54.78,0,1,1,56.41-53.1A54.77,54.77,0,0,1,457,633.9Z"/>
    <path class="cls-3" d="M660.09,523.31A64.9,64.9,0,1,0,723,590.14,64.91,64.91,0,0,0,660.09,523.31Zm-3.62,119.62a54.78,54.78,0,1,1,56.41-53.09A54.76,54.76,0,0,1,656.47,642.93Z"/>
    <path class="cls-4" d="M605.81,432.06s8.42-.32,7.53,10.43c0,0-.42,14.15-11.17,17.23l25.25,73.87,13.92,40.66,17.48,15.27-65.14-2"/>
    <path class="cls-5" d="M529.31,559.87s66.5,11,78.19-84.53l2.68,7.76s.75,74-77.63,84.39Z"/>
    <line class="cls-6" x1="509.18" y1="498.54" x2="537.33" y2="581.51"/>
    <path class="cls-5" d="M524.42,578.52l-5.7-.17c-1.52-32.72-26.47-59.15-57.84-60.09S403,542.18,399.51,574.74l-8-.24c4.15-36,33.59-63.47,68.41-62.41S522.45,542.3,524.42,578.52Z"/>
    <polyline class="cls-7" points="511.46 505.24 459.32 579.15 539.75 597.2 621.95 517.14"/>
    <path class="cls-8" d="M599.69,440h-.25l-.07,2.31-17.63-.53a3.18,3.18,0,0,0-.19,6.36l17.63.53-.09,2.89h.25a3.2,3.2,0,0,0,3.31-3.11l.16-5.13A3.21,3.21,0,0,0,599.69,440Z"/>
    <path class="cls-8" d="M603,427.34h-.25l-.07,2.31L585,429.12a3.18,3.18,0,1,0-.19,6.35l17.62.53-.09,2.89h.26a3.22,3.22,0,0,0,3.31-3.11l.15-5.14A3.22,3.22,0,0,0,603,427.34Z"/>
    <line class="cls-9" x1="602.73" y1="445.84" x2="613.37" y2="446.17"/>
    <path class="cls-5" d="M671.5,524l-.21,7A57.84,57.84,0,0,0,599.67,606l-3.68-.11a63.37,63.37,0,0,1-3.74-23.54c1-34.62,29.57-61.85,63.71-60.82A60.68,60.68,0,0,1,671.5,524Z"/>
    <path class="cls-8" d="M410.77,531.52l-5.43-3.15s-5.37,5.62-5.57,12l5.2.16Z"/>
    <g>
      <polyline class="cls-10" points="537.69 582.77 541.48 592.42 547.95 615.02"/>
      <line class="cls-10" x1="540.59" y1="613.5" x2="552.48" y2="615.95"/>
    </g>
    <line class="cls-11" x1="583.36" y1="541.55" x2="588.16" y2="550.04"/>
    <path class="cls-5" d="M638,498.74a1.76,1.76,0,0,0-1.52-.52c-12,1.2-11.23,6.13-11,6.88a.85.85,0,0,0,.09.22,12.42,12.42,0,0,0,5.16,4.53L624,523l1.34,3.89,7.78-16a32.28,32.28,0,0,0,5.24,1.5,1,1,0,0,0,1.1-.66C641.91,504.33,639.33,500.25,638,498.74Z"/>
    <path class="cls-8" d="M525.66,481.4l-36.84-1.12a1.6,1.6,0,0,0-1.13,2.77c1.83,1.71,5.85,4.2,14.51,7.47a27.91,27.91,0,0,0,5.16,1.42l-.22,7.4,4.62.14.22-7.21c8.09-.16,12.54-5.18,14.91-8.31A1.6,1.6,0,0,0,525.66,481.4Z"/>
  </g>
</svg>
