<svg id="Train" xmlns="http://www.w3.org/2000/svg" xmlns:xlink="http://www.w3.org/1999/xlink" viewBox="0 0 9510 1080">
  <defs>
    <style>
      .cls-1 {
        fill: #717485;
        stroke: #c4b59c;
      }

      .cls-1, .cls-2, .cls-3, .cls-4, .cls-5, .cls-6 {
        stroke-miterlimit: 10;
      }

      .cls-2 {
        fill: #9fd356;
      }

      .cls-2, .cls-5 {
        stroke: #9fd356;
      }

      .cls-3 {
        fill: #131833;
        stroke: #131833;
      }

      .cls-4, .cls-5 {
        fill: #d3ffe4;
      }

      .cls-4 {
        stroke: #d3ffe4;
      }

      .cls-6 {
        fill: #fff;
        stroke: #4a8cca;
      }

      .cls-7 {
        fill: url(#Neues_Verlaufsfeld_3);
      }
    </style>
    <linearGradient id="Neues_Verlaufsfeld_3" data-name="Neues Verlaufsfeld 3" x1="699.49" y1="197.47" x2="700.38" y2="197.52" gradientUnits="userSpaceOnUse">
      <stop offset="0" stop-color="#f05a24"/>
      <stop offset="1" stop-color="#ff7bac"/>
    </linearGradient>
  </defs>
  <title>train</title>
  <g>
    <rect id="_BusShadow_" data-name="&lt;BusShadow&gt;" class="cls-1" x="3.5" y="149.27" width="883.5" height="15.91" rx="7.96"/>
    <g id="_Train_" data-name="&lt;Train&gt;">
      <g>
        <path class="cls-2" d="M109.35,123a17.41,17.41,0,1,0,17.41,17.41A17.42,17.42,0,0,0,109.35,123Zm0,30.58a13.17,13.17,0,1,1,13.17-13.17A13.17,13.17,0,0,1,109.35,153.54Z"/>
        <path class="cls-2" d="M186.5,123a17.41,17.41,0,1,0,17.41,17.41A17.41,17.41,0,0,0,186.5,123Zm0,30.58a13.17,13.17,0,1,1,13.17-13.17A13.17,13.17,0,0,1,186.5,153.54Z"/>
        <path class="cls-2" d="M173.33,129l-13.46-6.74H137.31l-14.22,7.43h-6l0,14.21h2.82l16,7.52h26.34l16.94-7.52V133.55Zm-33.64,15.84-16.93-5.65v-3.76h16.93Zm35.76-5.65-17.88,5.65v-9.41h17.88Z"/>
        <rect class="cls-2" x="102.06" y="133.55" width="15.05" height="14.11" rx="2.48"/>
        <rect class="cls-2" x="179.21" y="132.61" width="15.05" height="14.11" rx="2.48"/>
      </g>
      <g>
        <path class="cls-2" d="M634.37,123a17.41,17.41,0,1,0,17.4,17.41A17.41,17.41,0,0,0,634.37,123Zm0,30.58a13.17,13.17,0,1,1,13.17-13.17A13.18,13.18,0,0,1,634.37,153.54Z"/>
        <path class="cls-2" d="M711.52,123a17.41,17.41,0,1,0,17.4,17.41A17.41,17.41,0,0,0,711.52,123Zm0,30.58a13.17,13.17,0,1,1,13.17-13.17A13.17,13.17,0,0,1,711.52,153.54Z"/>
        <path class="cls-2" d="M698.35,129l-13.47-6.74H662.32l-14.21,7.43h-6l0,14.21H645l16,7.52h26.34l16.94-7.52V133.55Zm-33.64,15.84-16.94-5.65v-3.76h16.94Zm35.75-5.65-17.87,5.65v-9.41h17.87Z"/>
        <rect class="cls-2" x="627.07" y="133.55" width="15.05" height="14.11" rx="2.48"/>
        <rect class="cls-2" x="704.23" y="132.61" width="15.05" height="14.11" rx="2.48"/>
      </g>
      <path class="cls-3" d="M855.71,122.26s48-8.47,23.52-32.93L862.3,71.45S776.67.88,715.52-.06,13.61-1,13.61-1V122.26Z"/>
      <rect class="cls-4" x="18.79" y="31.46" width="670.85" height="51.75"/>
      <path class="cls-5" d="M31.94,27.23H63a8.92,8.92,0,0,1,8.92,8.92v99.29a0,0,0,0,1,0,0H23a0,0,0,0,1,0,0V36.14A8.92,8.92,0,0,1,31.94,27.23Z"/>
      <path class="cls-5" d="M553.43,29.11h31.09A8.92,8.92,0,0,1,593.44,38v99.29a0,0,0,0,1,0,0H544.51a0,0,0,0,1,0,0V38A8.92,8.92,0,0,1,553.43,29.11Z"/>
      <polygon class="cls-2" points="13.61 122.26 13.61 139.19 78.53 139.19 85.12 122.26 13.61 122.26"/>
      <path class="cls-2" d="M-.5,12.17V122.26s4.7,6.58,14.11,0V12.17S6.09,8.41-.5,12.17Z"/>
      <path class="cls-4" d="M699.52,31V82.74h124.2S825.6,78,803,75.21c0,0-48-9.41-86.56-44.22Z"/>
      <path class="cls-6" d="M717.4,13.11S813.52,65.8,848.26,60.63c0,0-49.34-37.41-92.45-52.34,0,0-5.48,4.82-21.48,2.94C734.33,11.23,718.34,10.29,717.4,13.11Z"/>
      <polygon class="cls-2" points="210.56 122.26 220.61 139.19 599.79 139.19 605.29 122.26 210.56 122.26"/>
      <rect class="cls-6" x="27.73" y="37.58" width="38.58" height="38.58" rx="3.61"/>
      <rect class="cls-6" x="103.94" y="37.58" width="64.92" height="38.58" rx="4.69"/>
      <rect class="cls-6" x="193.32" y="38.52" width="64.92" height="38.58" rx="4.69"/>
      <rect class="cls-6" x="283.65" y="38.52" width="64.92" height="38.58" rx="4.69"/>
      <rect class="cls-6" x="372.09" y="38.52" width="64.92" height="38.58" rx="4.69"/>
      <rect class="cls-6" x="462.42" y="37.58" width="64.92" height="38.58" rx="4.69"/>
      <rect class="cls-6" x="612.02" y="37.58" width="64.92" height="38.58" rx="4.69"/>
      <rect class="cls-6" x="549.69" y="37.58" width="38.58" height="38.58" rx="3.61"/>
      <path class="cls-4" d="M737.16,123.2s0,12.23,29.16,14.11c0,0,17.88,2.82,22.59,14.11h83.74s-30.11-7.52-16.94-29.16Z"/>
      <path class="cls-7" d="M700.4,197l-.56.93c-.12-.28-.25-.53-.34-.81A4.34,4.34,0,0,0,700.4,197Z"/>
      <path class="cls-7" d="M700.4,197l-.56.93c-.12-.28-.25-.53-.34-.81A4.34,4.34,0,0,0,700.4,197Z"/>
      <path class="cls-7" d="M700.4,197l-.56.93c-.12-.28-.25-.53-.34-.81A4.34,4.34,0,0,0,700.4,197Z"/>
    </g>
  </g>
</svg>
